<svg xmlns="http://www.w3.org/2000/svg" version="1.1" xmlns:xlink="http://www.w3.org/1999/xlink" xmlns:svgjs="http://svgjs.dev/svgjs" width="1000" height="1000" viewBox="0 0 1000 1000"><rect width="1000" height="1000" fill="#c9efc7"></rect><g transform="matrix(0.7,0,0,0.7,149.57575757575756,282.1265587044535)"><svg viewBox="0 0 396 247" data-background-color="#c9efc7" preserveAspectRatio="xMidYMid meet" height="623" width="1000" xmlns="http://www.w3.org/2000/svg" xmlns:xlink="http://www.w3.org/1999/xlink"><g id="tight-bounds" transform="matrix(1,0,0,1,0.2400000000000091,-0.09999999999999432)"><svg viewBox="0 0 395.52 247.2" height="247.2" width="395.52"><g><svg></svg></g><g><svg viewBox="0 0 395.52 247.2" height="247.2" width="395.52"><g transform="matrix(1,0,0,1,75.54432,98.09388913816431)"><svg viewBox="0 0 244.43135999999998 51.012221723671345" height="51.012221723671345" width="244.43135999999998"><g><svg viewBox="0 0 244.43135999999998 51.012221723671345" height="51.012221723671345" width="244.43135999999998"><g><svg viewBox="0 0 297.2316625255173 62.03151458162793" height="51.012221723671345" width="244.43135999999998"><g transform="matrix(1,0,0,1,52.80030252551735,1.092209494563157)"><svg viewBox="0 0 244.43135999999998 59.84709559250162" height="59.84709559250162" width="244.43135999999998"><g><svg viewBox="0 0 244.43135999999998 59.84709559250162" height="59.84709559250162" width="244.43135999999998"><g><svg viewBox="0 0 244.43135999999998 35.54433536878215" height="35.54433536878215" width="244.43135999999998"><g transform="matrix(1,0,0,1,0,0)"><svg width="244.43135999999998" viewBox="0.9000000357627869 -37.5 262.32000732421875 38.150001525878906" height="35.54433536878215" data-palette-color="#454545"><path d="M12.1-32.05L17.5-32.8 17.5-3.9Q18.45-3.2 19.33-2.9 20.2-2.6 21-2.6L21-2.6Q22.95-2.6 24.28-4.03 25.6-5.45 26.45-7.73 27.3-10 27.68-12.8 28.05-15.6 28.05-18.3L28.05-18.3Q28.05-22.95 27.4-26.25 26.75-29.55 25.3-31.65 23.85-33.75 21.55-34.73 19.25-35.7 16-35.7L16-35.7Q13.75-35.7 11.7-35 9.65-34.3 8.1-32.98 6.55-31.65 5.63-29.73 4.7-27.8 4.7-25.35L4.7-25.35Q4.7-23.9 5.03-22.9 5.35-21.9 5.78-21.25 6.2-20.6 6.68-20.23 7.15-19.85 7.45-19.65L7.45-19.65Q4.4-19.65 2.65-21.05 0.9-22.45 0.9-25.75L0.9-25.75Q0.9-28.05 2.1-30.2 3.3-32.35 5.43-33.95 7.55-35.55 10.43-36.52 13.3-37.5 16.7-37.5L16.7-37.5Q21.5-37.5 24.8-35.88 28.1-34.25 30.15-31.58 32.2-28.9 33.1-25.45 34-22 34-18.35L34-18.35Q34-14.8 33.27-11.4 32.55-8 31.28-5.33 30-2.65 28.25-1 26.5 0.65 24.4 0.65L24.4 0.65Q22.9 0.65 21.2-0.05 19.5-0.75 17.5-2.25L17.5-2.25 17.5 0 12.1 0 12.1-32.05ZM37.55-25L42.55-25 42.55-20.8Q43.15-21.7 43.72-22.5 44.3-23.3 45-23.9 45.7-24.5 46.55-24.88 47.4-25.25 48.45-25.25L48.45-25.25Q50.15-25.25 50.95-24.38 51.75-23.5 51.75-22.25L51.75-22.25Q51.75-21.5 51.5-21 51.25-20.5 50.9-20.2 50.55-19.9 50.15-19.78 49.75-19.65 49.45-19.65L49.45-19.65Q49-19.65 48.72-19.85 48.45-20.05 48.17-20.28 47.9-20.5 47.55-20.7 47.2-20.9 46.65-20.9L46.65-20.9Q45.5-20.9 44.45-20.1 43.4-19.3 42.55-18.4L42.55-18.4 42.55 0 37.55 0 37.55-25ZM82.24-8.95L84.34-8.95Q82.89-6.95 81.37-5.63 79.84-4.3 78.39-3.3L78.39-3.3Q77.84-2.3 76.99-1.63 76.14-0.95 75.17-0.53 74.19-0.1 73.22 0.1 72.24 0.3 71.44 0.3L71.44 0.3Q69.24 0.3 67.82-0.4 66.39-1.1 65.54-2.18 64.69-3.25 64.34-4.58 63.99-5.9 63.99-7.1L63.99-7.1Q63.99-8.4 64.52-9.38 65.04-10.35 65.79-10.75L65.79-10.75Q67.09-14.5 68.34-18.18 69.59-21.85 69.99-25.55L69.99-25.55 75.04-26.55Q76.24-21.8 77.02-18.8 77.79-15.8 78.27-13.73 78.74-11.65 78.97-10.08 79.19-8.5 79.19-6.6L79.19-6.6Q80.04-7.15 80.79-7.78 81.54-8.4 82.24-8.95L82.24-8.95ZM73.89-6.95L73.89-6.95Q73.89-8.5 73.72-9.7 73.54-10.9 73.19-12.35 72.84-13.8 72.32-15.88 71.79-17.95 71.09-21.2L71.09-21.2Q70.79-18.4 69.87-15.85 68.94-13.3 68.19-10.6L68.19-10.6Q68.64-10.3 68.97-9.78 69.29-9.25 69.29-8.4L69.29-8.4Q69.29-7.45 68.79-6.95 68.29-6.45 67.69-6.45L67.69-6.45Q66.89-6.45 66.34-7.15L66.34-7.15Q66.74-5.4 67.74-4.42 68.74-3.45 70.39-3.45L70.39-3.45Q71.99-3.45 72.94-4.28 73.89-5.1 73.89-6.95ZM95.64-25L100.64-25 100.64-8Q100.64-7.5 100.69-6.75 100.74-6 100.97-5.28 101.19-4.55 101.64-4.03 102.09-3.5 102.89-3.5L102.89-3.5Q105.34-3.5 106.49-8.95L106.49-8.95 108.34-8.95Q107.79-5.8 106.94-3.98 106.09-2.15 105.14-1.2 104.19-0.25 103.19 0.03 102.19 0.3 101.39 0.3L101.39 0.3Q100.24 0.3 99.42-0.1 98.59-0.5 98.02-1.15 97.44-1.8 97.09-2.65 96.74-3.5 96.54-4.45L96.54-4.45Q95.79-2.5 94.12-1.1 92.44 0.3 90.04 0.3L90.04 0.3Q88.54 0.3 87.02-0.3 85.49-0.9 84.27-2.27 83.04-3.65 82.27-5.83 81.49-8 81.49-11.15L81.49-11.15Q81.49-13.45 82.02-15.95 82.54-18.45 83.69-20.5 84.84-22.55 86.64-23.9 88.44-25.25 90.99-25.25L90.99-25.25Q91.59-25.25 92.27-25.13 92.94-25 93.57-24.7 94.19-24.4 94.74-23.88 95.29-23.35 95.64-22.6L95.64-22.6 95.64-25ZM91.29-3.5L91.29-3.5Q92.04-3.5 92.82-3.93 93.59-4.35 94.22-5.08 94.84-5.8 95.24-6.8 95.64-7.8 95.64-8.95L95.64-8.95 95.64-20.35Q95.29-21.15 94.57-21.83 93.84-22.5 92.69-22.5L92.69-22.5Q91.09-22.5 89.94-21.43 88.79-20.35 88.09-18.73 87.39-17.1 87.07-15.18 86.74-13.25 86.74-11.5L86.74-11.5Q86.74-7.2 87.92-5.35 89.09-3.5 91.29-3.5ZM106.49-31.9L111.49-32.6 111.49-25 115.34-25 115.34-23.25 111.49-23.25 111.49-8Q111.49-7.4 111.54-6.63 111.59-5.85 111.81-5.15 112.04-4.45 112.51-3.98 112.99-3.5 113.84-3.5L113.84-3.5Q115.19-3.5 116.41-4.85 117.64-6.2 118.34-8.95L118.34-8.95 120.19-8.95Q119.34-5.8 118.36-3.98 117.39-2.15 116.34-1.2 115.29-0.25 114.26 0.03 113.24 0.3 112.39 0.3L112.39 0.3Q110.59 0.3 109.44-0.38 108.29-1.05 107.64-2.1 106.99-3.15 106.74-4.42 106.49-5.7 106.49-6.95L106.49-6.95 106.49-23.25 104.79-23.25 104.79-25 106.49-25 106.49-31.9ZM118.29-31.9L123.29-32.6 123.29-25 127.14-25 127.14-23.25 123.29-23.25 123.29-8Q123.29-7.4 123.34-6.63 123.39-5.85 123.61-5.15 123.84-4.45 124.31-3.98 124.79-3.5 125.64-3.5L125.64-3.5Q126.99-3.5 128.21-4.85 129.44-6.2 130.14-8.95L130.14-8.95 131.99-8.95Q131.14-5.8 130.16-3.98 129.19-2.15 128.14-1.2 127.09-0.25 126.06 0.03 125.04 0.3 124.19 0.3L124.19 0.3Q122.39 0.3 121.24-0.38 120.09-1.05 119.44-2.1 118.79-3.15 118.54-4.42 118.29-5.7 118.29-6.95L118.29-6.95 118.29-23.25 116.59-23.25 116.59-25 118.29-25 118.29-31.9ZM130.08-34.3L135.08-35 135.08-8Q135.08-7.5 135.13-6.75 135.18-6 135.41-5.28 135.63-4.55 136.08-4.03 136.53-3.5 137.33-3.5L137.33-3.5Q139.78-3.5 140.93-8.95L140.93-8.95 142.78-8.95Q142.23-5.8 141.38-3.98 140.53-2.15 139.58-1.2 138.63-0.25 137.63 0.03 136.63 0.3 135.83 0.3L135.83 0.3Q134.08 0.3 132.98-0.38 131.88-1.05 131.23-2.1 130.58-3.15 130.33-4.45 130.08-5.75 130.08-6.95L130.08-6.95 130.08-34.3ZM156.48-18.75L156.48-18.75Q156.48-15.25 153.61-12.9 150.73-10.55 145.63-10L145.63-10Q145.83-8 146.36-6.75 146.88-5.5 147.63-4.78 148.38-4.05 149.36-3.78 150.33-3.5 151.38-3.5L151.38-3.5Q153.78-3.5 155.88-4.75 157.98-6 159.28-8.95L159.28-8.95 160.88-8.95Q160.23-7.1 159.08-5.43 157.93-3.75 156.38-2.48 154.83-1.2 153.03-0.45 151.23 0.3 149.33 0.3L149.33 0.3Q147.58 0.3 145.96-0.3 144.33-0.9 143.08-2.27 141.83-3.65 141.06-5.85 140.28-8.05 140.28-11.25L140.28-11.25Q140.28-13.35 140.76-15.8 141.23-18.25 142.36-20.35 143.48-22.45 145.31-23.85 147.13-25.25 149.83-25.25L149.83-25.25Q151.08-25.25 152.26-24.98 153.43-24.7 154.38-23.98 155.33-23.25 155.91-22 156.48-20.75 156.48-18.75ZM145.58-11.95L145.58-11.95Q149.13-12.5 151.21-14.45 153.28-16.4 153.28-19.25L153.28-19.25Q153.28-21.15 152.63-21.98 151.98-22.8 150.78-22.8L150.78-22.8Q149.48-22.8 148.51-21.8 147.53-20.8 146.88-19.23 146.23-17.65 145.91-15.73 145.58-13.8 145.58-11.95ZM159.23-25L164.23-25 164.23-20.8Q164.83-21.7 165.4-22.5 165.98-23.3 166.68-23.9 167.38-24.5 168.23-24.88 169.08-25.25 170.13-25.25L170.13-25.25Q171.83-25.25 172.63-24.38 173.43-23.5 173.43-22.25L173.43-22.25Q173.43-21.5 173.18-21 172.93-20.5 172.58-20.2 172.23-19.9 171.83-19.78 171.43-19.65 171.13-19.65L171.13-19.65Q170.68-19.65 170.4-19.85 170.13-20.05 169.85-20.28 169.58-20.5 169.23-20.7 168.88-20.9 168.33-20.9L168.33-20.9Q167.18-20.9 166.13-20.1 165.08-19.3 164.23-18.4L164.23-18.4 164.23 0 159.23 0 159.23-25ZM193.18-8.95L195.28-8.95Q193.83-6.95 192.3-5.63 190.78-4.3 189.33-3.3L189.33-3.3Q188.78-2.3 187.93-1.63 187.08-0.95 186.1-0.53 185.13-0.1 184.15 0.1 183.18 0.3 182.38 0.3L182.38 0.3Q180.18 0.3 178.75-0.4 177.33-1.1 176.48-2.18 175.63-3.25 175.28-4.58 174.93-5.9 174.93-7.1L174.93-7.1Q174.93-8.4 175.45-9.38 175.98-10.35 176.73-10.75L176.73-10.75Q178.03-14.5 179.28-18.18 180.53-21.85 180.93-25.55L180.93-25.55 185.98-26.55Q187.18-21.8 187.95-18.8 188.73-15.8 189.2-13.73 189.68-11.65 189.9-10.08 190.13-8.5 190.13-6.6L190.13-6.6Q190.98-7.15 191.73-7.78 192.48-8.4 193.18-8.95L193.18-8.95ZM184.83-6.95L184.83-6.95Q184.83-8.5 184.65-9.7 184.48-10.9 184.13-12.35 183.78-13.8 183.25-15.88 182.73-17.95 182.03-21.2L182.03-21.2Q181.73-18.4 180.8-15.85 179.88-13.3 179.13-10.6L179.13-10.6Q179.58-10.3 179.9-9.78 180.23-9.25 180.23-8.4L180.23-8.4Q180.23-7.45 179.73-6.95 179.23-6.45 178.63-6.45L178.63-6.45Q177.83-6.45 177.28-7.15L177.28-7.15Q177.68-5.4 178.68-4.42 179.68-3.45 181.33-3.45L181.33-3.45Q182.93-3.45 183.88-4.28 184.83-5.1 184.83-6.95ZM203.87-8.95L203.92-34.3 208.92-35 208.92-23.15Q209.77-24 210.92-24.55 212.07-25.1 213.67-25.1L213.67-25.1Q215.02-25.1 216.47-24.63 217.92-24.15 219.17-22.95 220.42-21.75 221.22-19.65 222.02-17.55 222.02-14.3L222.02-14.3Q222.02-11.45 221.35-8.8 220.67-6.15 219.3-4.13 217.92-2.1 215.87-0.9 213.82 0.3 211.07 0.3L211.07 0.3Q209.52 0.3 208.2-0.18 206.87-0.65 205.92-1.73 204.97-2.8 204.42-4.58 203.87-6.35 203.87-8.95L203.87-8.95ZM217.57-13.15L217.57-13.15Q217.57-15.1 217.22-16.8 216.87-18.5 216.2-19.78 215.52-21.05 214.55-21.78 213.57-22.5 212.32-22.5L212.32-22.5Q211.32-22.5 210.47-22.03 209.62-21.55 208.92-20.8L208.92-20.8 208.92-7.65Q208.92-3.15 211.87-3.15L211.87-3.15Q213.27-3.15 214.35-3.98 215.42-4.8 216.15-6.2 216.87-7.6 217.22-9.4 217.57-11.2 217.57-13.15ZM238.22-25L243.22-25 243.22-8Q243.22-7.5 243.27-6.75 243.32-6 243.54-5.28 243.77-4.55 244.22-4.03 244.67-3.5 245.47-3.5L245.47-3.5Q247.92-3.5 249.07-8.95L249.07-8.95 250.92-8.95Q250.37-5.8 249.52-3.98 248.67-2.15 247.72-1.2 246.77-0.25 245.77 0.03 244.77 0.3 243.97 0.3L243.97 0.3Q242.82 0.3 241.99-0.1 241.17-0.5 240.59-1.15 240.02-1.8 239.67-2.65 239.32-3.5 239.12-4.45L239.12-4.45Q238.37-2.5 236.69-1.1 235.02 0.3 232.62 0.3L232.62 0.3Q231.12 0.3 229.59-0.3 228.07-0.9 226.84-2.27 225.62-3.65 224.84-5.83 224.07-8 224.07-11.15L224.07-11.15Q224.07-13.45 224.59-15.95 225.12-18.45 226.27-20.5 227.42-22.55 229.22-23.9 231.02-25.25 233.57-25.25L233.57-25.25Q234.17-25.25 234.84-25.13 235.52-25 236.14-24.7 236.77-24.4 237.32-23.88 237.87-23.35 238.22-22.6L238.22-22.6 238.22-25ZM233.87-3.5L233.87-3.5Q234.62-3.5 235.39-3.93 236.17-4.35 236.79-5.08 237.42-5.8 237.82-6.8 238.22-7.8 238.22-8.95L238.22-8.95 238.22-20.35Q237.87-21.15 237.14-21.83 236.42-22.5 235.27-22.5L235.27-22.5Q233.67-22.5 232.52-21.43 231.37-20.35 230.67-18.73 229.97-17.1 229.64-15.18 229.32-13.25 229.32-11.5L229.32-11.5Q229.32-7.2 230.49-5.35 231.67-3.5 233.87-3.5ZM249.02-25L254.02-25 254.02-20.8Q254.62-21.7 255.19-22.5 255.77-23.3 256.47-23.9 257.17-24.5 258.02-24.88 258.87-25.25 259.92-25.25L259.92-25.25Q261.62-25.25 262.42-24.38 263.22-23.5 263.22-22.25L263.22-22.25Q263.22-21.5 262.97-21 262.72-20.5 262.37-20.2 262.02-19.9 261.62-19.78 261.22-19.65 260.92-19.65L260.92-19.65Q260.47-19.65 260.19-19.85 259.92-20.05 259.64-20.28 259.37-20.5 259.02-20.7 258.67-20.9 258.12-20.9L258.12-20.9Q256.97-20.9 255.92-20.1 254.87-19.3 254.02-18.4L254.02-18.4 254.02 0 249.02 0 249.02-25Z" opacity="1" transform="matrix(1,0,0,1,0,0)" fill="#454545" class="undefined-text-0" data-fill-palette-color="primary" id="text-0"></path></svg></g></svg></g><g transform="matrix(1,0,0,1,0,43.93549988530276)"><svg viewBox="0 0 244.43135999999998 15.911595707198849" height="15.911595707198849" width="244.43135999999998"><g transform="matrix(1,0,0,1,0,0)"><svg width="244.43135999999998" viewBox="1.559999942779541 -39.84000015258789 644.6400146484375 41.959999084472656" height="15.911595707198849" data-palette-color="#454545"><path d="M27.47-33.89L35.08-35.94Q35.21-35.96 35.31-35.97 35.42-35.99 35.52-35.99L35.52-35.99Q35.96-35.99 36.23-35.71 36.5-35.42 36.6-34.72L36.6-34.72Q36.65-34.28 36.76-33.48 36.87-32.69 37-31.73 37.13-30.76 37.29-29.74 37.45-28.71 37.57-27.84 37.7-26.98 37.79-26.35 37.89-25.73 37.92-25.56L37.92-25.56Q38.45-21.24 38.87-18.63 39.28-16.02 39.45-14.77L39.45-14.77 41.09-1.56 40.84-0.81Q40.8-0.63 40.21-0.39 39.62-0.15 38.79 0.13 37.96 0.42 36.99 0.68 36.01 0.95 35.18 1.17 34.35 1.39 33.78 1.53 33.2 1.66 33.18 1.66L33.18 1.66Q32.59 1.66 32.25 0.81 31.91-0.05 31.69-1.37 31.47-2.69 31.34-4.25 31.2-5.81 31.03-7.25L31.03-7.25Q30.88-8.45 30.76-9.67 30.64-10.89 30.49-12.16L30.49-12.16 29.54-19.29 20.48-2.71Q20.07-2.12 19.65-1.87 19.24-1.61 18.87-1.61L18.87-1.61Q18.33-1.61 18.03-1.93 17.72-2.25 17.6-2.71L17.6-2.71Q17.14-4.25 16.81-5.31 16.48-6.37 16.2-7.25 15.92-8.13 15.67-8.96 15.43-9.79 15.12-10.88 14.82-11.96 14.44-13.44 14.06-14.92 13.53-17.07L13.53-17.07 12.77-13.55 9.25 1.37Q9.18 1.66 8.64 1.66L8.64 1.66Q8.13 1.66 7.24 1.46 6.35 1.27 5.38 0.99 4.42 0.71 3.5 0.4 2.59 0.1 2.05-0.15L2.05-0.15Q1.93-0.2 1.75-0.38 1.56-0.56 1.56-0.95L1.56-0.95Q1.56-1.05 1.64-1.37 1.71-1.68 1.82-2.11 1.93-2.54 2.06-2.98 2.2-3.42 2.32-3.76L2.32-3.76Q2.64-4.59 2.89-5.71 3.15-6.84 3.37-7.98 3.59-9.13 3.77-10.18 3.96-11.23 4.13-11.94L4.13-11.94 7.13-25.95 8.03-29.91Q8.2-30.66 8.36-31.38 8.52-32.1 8.64-32.69 8.76-33.28 8.84-33.64 8.91-34.01 8.91-34.06L8.91-34.06 15.01-35.94Q15.36-35.94 15.61-35.88 15.87-35.82 15.94-35.47L15.94-35.47 20.8-19.85 27.47-33.89ZM45.29-10.35L45.29-10.35Q45.6-13.7 45.92-16.97 46.24-20.24 46.48-23.68L46.48-23.68Q46.53-24.49 46.64-24.79 46.75-25.1 47.19-25.2L47.19-25.2Q49.27-25.61 51.54-26.06 53.81-26.51 55.93-27.22L55.93-27.22Q56-27.25 56.15-27.25L56.15-27.25Q56.42-27.25 56.42-27.05L56.42-27.05 54.22-3.27Q54.15-2.47 54.05-2.16 53.95-1.86 53.51-1.76L53.51-1.76Q51.44-1.12 49.31-0.34 47.19 0.44 44.82 1.25L44.82 1.25Q44.75 1.27 44.6 1.27L44.6 1.27Q44.33 1.27 44.33 1.03L44.33 1.03Q44.33 1 44.38 0.37 44.43-0.27 44.52-1.27 44.6-2.27 44.7-3.52 44.8-4.76 44.91-6.01 45.02-7.25 45.11-8.4 45.21-9.55 45.29-10.35ZM47.12-29.83L47.12-29.83Q47.19-30.88 47.23-31.45 47.26-32.01 47.29-32.29 47.31-32.57 47.31-32.64 47.31-32.71 47.32-32.75 47.34-32.79 47.35-32.9 47.36-33.01 47.39-33.36 47.41-33.72 47.46-34.4 47.51-35.08 47.6-36.28L47.6-36.28Q47.65-37.08 47.76-37.39 47.87-37.7 48.31-37.79L48.31-37.79Q50.39-38.21 52.66-38.66 54.93-39.11 57.05-39.82L57.05-39.82Q57.13-39.84 57.27-39.84L57.27-39.84Q57.35-39.7 57.47-39.65L57.47-39.65 57.54-39.6 57-32.91Q56.93-32.1 56.82-31.79 56.71-31.47 56.3-31.4L56.3-31.4Q54.22-31.01 52.1-30.54 49.97-30.08 47.6-29.61L47.6-29.61Q47.53-29.59 47.39-29.59L47.39-29.59Q47.12-29.59 47.12-29.83ZM59.1-11.91L59.1-11.91Q59.1-15.11 60.29-17.91 61.47-20.7 63.56-22.78 65.64-24.85 68.49-26.05 71.33-27.25 74.68-27.25L74.68-27.25Q76.95-27.25 78.56-26.88 80.17-26.51 81.2-26.06 82.22-25.61 82.7-25.23 83.17-24.85 83.17-24.83L83.17-24.83Q83.17-24.68 83.06-24.01 82.95-23.34 82.82-22.45 82.69-21.56 82.58-20.62 82.47-19.68 82.47-18.99L82.47-18.99Q82.47-18.87 82.39-18.73 82.32-18.58 82-18.58L82-18.58Q81.71-18.58 81.15-18.79 80.59-18.99 79.77-19.24 78.95-19.48 77.89-19.69 76.83-19.9 75.53-19.9L75.53-19.9Q73.92-19.9 72.63-19.32 71.33-18.75 70.41-17.74 69.48-16.72 68.98-15.33 68.48-13.94 68.48-12.33L68.48-12.33Q68.48-10.64 69-9.46 69.53-8.28 70.41-7.53 71.28-6.79 72.43-6.45 73.58-6.1 74.85-6.1L74.85-6.1Q76.31-6.1 77.8-6.51 79.29-6.91 80.61-7.64L80.61-7.64Q80.66-7.67 80.81-7.67L80.81-7.67Q80.93-7.67 80.99-7.54 81.05-7.42 81.05-7.08L81.05-7.08Q81.05-6.3 81.05-5.19 81.05-4.08 81.04-3.06 81.03-2.05 81-1.34 80.98-0.63 80.95-0.63L80.95-0.63Q80.07-0.05 79.05 0.32 78.02 0.68 76.94 0.9 75.85 1.12 74.75 1.2 73.65 1.27 72.63 1.27L72.63 1.27Q69.77 1.27 67.3 0.32 64.84-0.63 63.02-2.37 61.2-4.1 60.15-6.53 59.1-8.96 59.1-11.91ZM106.78-27.44L105.27-19.87Q104.75-19.92 104.12-19.98 103.48-20.04 102.78-20.04L102.78-20.04Q101.7-20.04 100.59-19.86 99.48-19.68 98.53-19.14 97.58-18.6 96.89-17.66 96.21-16.72 96.01-15.23L96.01-15.23Q95.84-13.43 95.73-12.27 95.62-11.11 95.57-10.36 95.52-9.62 95.49-9.17 95.45-8.72 95.43-8.33L95.43-8.33Q95.43-8.23 95.39-7.79 95.35-7.35 95.28-6.76 95.21-6.18 95.15-5.49 95.09-4.81 95.01-4.22 94.94-3.64 94.9-3.2 94.87-2.76 94.87-2.66L94.87-2.66Q94.87-2.47 94.88-2.33 94.89-2.2 94.89-2.08L94.89-2.08Q94.89-1.88 94.71-1.75 94.52-1.61 93.89-1.44L93.89-1.44 87.42 0.88Q87.15 0.98 86.71 1.12 86.27 1.27 85.86 1.27L85.86 1.27Q85.51 1.27 85.26 1.1 85 0.93 85 0.51L85 0.51 87.1-23.68Q87.18-24.49 87.28-24.79 87.39-25.1 87.83-25.2L87.83-25.2Q90.06-25.63 92.42-26.09 94.79-26.54 97.01-27.25L97.01-27.25Q97.21-27.25 97.25-27.19 97.28-27.12 97.28-27L97.28-27Q97.28-26.95 97.27-26.86 97.26-26.76 97.2-26.42 97.14-26.07 97.03-25.38 96.92-24.68 96.72-23.44L96.72-23.44Q97.84-24.32 99.2-25.05 100.55-25.78 101.92-26.31 103.29-26.83 104.56-27.14 105.83-27.44 106.78-27.44L106.78-27.44ZM120.18 1.27L120.18 1.27Q116.74 1.27 114.14 0.15 111.54-0.98 109.78-2.84 108.02-4.71 107.14-7.14 106.26-9.57 106.26-12.18L106.26-12.18Q106.26-14.79 107.12-17.15 107.97-19.51 109.51-21.37 111.05-23.24 113.2-24.5 115.35-25.76 117.93-26.2L117.93-26.2Q118.32-26.22 118.32-26.37L118.32-26.37Q118.32-26.64 118.26-26.87 118.2-27.1 118.2-27.27L118.2-27.27Q118.2-27.54 118.3-27.64 118.4-27.73 118.52-27.73L118.52-27.73Q123.18-27.73 126.45-26.67 129.73-25.61 131.78-23.78 133.83-21.95 134.76-19.46 135.68-16.97 135.68-14.11L135.68-14.11Q135.68-10.47 134.46-7.62 133.24-4.76 131.13-2.78 129.02-0.81 126.2 0.23 123.38 1.27 120.18 1.27ZM115.66-12.45L115.66-12.45Q115.66-11.13 115.94-9.84 116.23-8.54 116.87-7.5 117.52-6.45 118.57-5.8 119.62-5.15 121.18-5.15L121.18-5.15Q122.3-5.2 123.15-5.65 123.99-6.1 124.6-6.82 125.21-7.54 125.61-8.45 126.02-9.35 126.25-10.31 126.48-11.28 126.58-12.21 126.67-13.13 126.67-13.89L126.67-13.89Q126.67-15.16 126.3-16.38 125.92-17.6 125.19-18.53 124.45-19.46 123.37-20.03 122.28-20.61 120.86-20.61L120.86-20.61Q119.4-20.61 118.4-19.74 117.4-18.87 116.8-17.6 116.2-16.33 115.93-14.93 115.66-13.53 115.66-12.45ZM139.25-0.07L138.93-6.74Q138.93-6.76 138.92-6.77 138.9-6.79 138.9-6.81L138.9-6.81Q138.9-7.13 139.25-7.13L139.25-7.13Q139.47-7.13 139.64-6.96L139.64-6.96Q140.61-6.03 141.87-5.44 143.13-4.86 144.59-4.86L144.59-4.86Q144.98-4.86 145.5-4.94 146.01-5.03 146.47-5.22 146.94-5.42 147.24-5.75 147.55-6.08 147.55-6.57L147.55-6.57Q147.55-7.1 147.28-7.56 147.01-8.01 146.57-8.3L146.57-8.3Q146.33-8.47 145.72-8.9 145.1-9.33 144.41-9.81 143.71-10.3 143.09-10.74 142.47-11.18 142.22-11.38L142.22-11.38Q141.13-12.21 140.48-13.06 139.83-13.92 139.49-14.83 139.15-15.75 139.05-16.75 138.95-17.75 138.95-18.87L138.95-18.87Q138.95-20.58 139.86-22.09 140.76-23.61 142.24-24.76 143.71-25.9 145.59-26.57 147.47-27.25 149.43-27.25L149.43-27.25Q151.04-27.25 152.6-26.76 154.16-26.27 155.51-25.1L155.51-25.1Q155.63-23.56 155.68-22.07 155.72-20.58 155.82-18.95L155.82-18.95Q155.82-18.63 155.68-18.52 155.53-18.41 155.33-18.41L155.33-18.41Q155.16-18.41 155.04-18.53L155.04-18.53Q154.48-19.07 153.89-19.59 153.31-20.12 152.66-20.52 152.01-20.92 151.28-21.18 150.55-21.44 149.72-21.44L149.72-21.44Q149.21-21.44 148.69-21.35 148.18-21.26 147.77-21.03 147.35-20.8 147.09-20.41 146.84-20.02 146.84-19.41L146.84-19.41Q146.84-18.7 147.01-18.19 147.18-17.68 147.81-17.19L147.81-17.19 152.36-14.11Q153.6-13.26 154.37-12.44 155.14-11.62 155.58-10.82 156.02-10.01 156.18-9.22 156.34-8.42 156.34-7.64L156.34-7.64Q156.34-5.44 155.32-3.77 154.31-2.1 152.7-0.99 151.09 0.12 149.05 0.7 147.01 1.27 144.96 1.27L144.96 1.27Q143.4 1.27 141.94 0.94 140.49 0.61 139.25-0.07L139.25-0.07ZM174.37-27.25L174.37-27.25Q176.69-27.25 178.59-26.38 180.48-25.51 181.83-24.13 183.19-22.75 183.92-21.04 184.65-19.34 184.65-17.63L184.65-17.63Q184.65-16.11 183.73-14.59 182.8-13.06 181.13-11.84 179.45-10.62 177.11-9.86 174.77-9.11 171.96-9.11L171.96-9.11Q170.49-9.11 168.88-9.4L168.88-9.4Q168.98-8.35 169.49-7.59 170-6.84 170.79-6.35 171.57-5.86 172.56-5.63 173.54-5.4 174.59-5.4L174.59-5.4Q175.77-5.4 176.85-5.6 177.94-5.81 178.94-6.15 179.94-6.49 180.87-6.91 181.8-7.32 182.63-7.74L182.63-7.74Q182.85-7.79 183.01-7.82 183.16-7.86 183.31-7.86L183.31-7.86Q183.31-7.86 183.3-7.47 183.29-7.08 183.29-6.37 183.29-5.66 183.27-4.66 183.26-3.66 183.24-2.44L183.24-2.44Q183.31-2.32 183.33-2.2 183.36-2.08 183.36-2L183.36-2Q183.36-1.71 182.82-1.37 182.28-1.03 181.42-0.66 180.55-0.29 179.44 0.05 178.33 0.39 177.18 0.67 176.03 0.95 174.96 1.11 173.89 1.27 173.08 1.27L173.08 1.27Q170.44 1.27 167.97 0.35 165.49-0.56 163.57-2.27 161.65-3.98 160.51-6.42 159.36-8.86 159.36-11.91L159.36-11.91Q159.36-15.11 160.46-17.91 161.56-20.7 163.55-22.78 165.54-24.85 168.3-26.05 171.05-27.25 174.37-27.25ZM174.08-20.75L174.08-20.75Q173.08-20.75 172.24-20.32 171.4-19.9 170.7-19.1 170-18.31 169.49-17.2 168.98-16.09 168.66-14.75L168.66-14.75Q171.18-15.19 172.84-15.67 174.5-16.16 175.5-16.66 176.5-17.16 176.91-17.66 177.33-18.16 177.33-18.63L177.33-18.63Q177.33-19.07 177-19.46 176.67-19.85 176.18-20.14 175.69-20.43 175.12-20.59 174.55-20.75 174.08-20.75ZM209.19-27.44L207.67-19.87Q207.16-19.92 206.53-19.98 205.89-20.04 205.18-20.04L205.18-20.04Q204.11-20.04 203-19.86 201.89-19.68 200.93-19.14 199.98-18.6 199.3-17.66 198.62-16.72 198.42-15.23L198.42-15.23Q198.25-13.43 198.14-12.27 198.03-11.11 197.98-10.36 197.93-9.62 197.9-9.17 197.86-8.72 197.83-8.33L197.83-8.33Q197.83-8.23 197.8-7.79 197.76-7.35 197.69-6.76 197.61-6.18 197.55-5.49 197.49-4.81 197.42-4.22 197.35-3.64 197.31-3.2 197.27-2.76 197.27-2.66L197.27-2.66Q197.27-2.47 197.28-2.33 197.3-2.2 197.3-2.08L197.3-2.08Q197.3-1.88 197.11-1.75 196.93-1.61 196.3-1.44L196.3-1.44 189.83 0.88Q189.56 0.98 189.12 1.12 188.68 1.27 188.26 1.27L188.26 1.27Q187.92 1.27 187.67 1.1 187.41 0.93 187.41 0.51L187.41 0.51 189.51-23.68Q189.58-24.49 189.69-24.79 189.8-25.1 190.24-25.2L190.24-25.2Q192.46-25.63 194.83-26.09 197.2-26.54 199.42-27.25L199.42-27.25Q199.62-27.25 199.65-27.19 199.69-27.12 199.69-27L199.69-27Q199.69-26.95 199.68-26.86 199.67-26.76 199.6-26.42 199.54-26.07 199.43-25.38 199.32-24.68 199.13-23.44L199.13-23.44Q200.25-24.32 201.61-25.05 202.96-25.78 204.33-26.31 205.7-26.83 206.96-27.14 208.23-27.44 209.19-27.44L209.19-27.44ZM227.71-27L227.71-27Q227.81-27.25 228.08-27.25L228.08-27.25Q228.13-27.25 228.18-27.23 228.23-27.22 228.28-27.22L228.28-27.22Q230.11-26.51 232.04-26.06 233.96-25.61 235.87-25.2L235.87-25.2Q236.33-25.1 236.33-24.66L236.33-24.66Q236.33-24.34 236.04-23.68L236.04-23.68 225.98-2.29Q225.79-1.86 225.64-1.59 225.49-1.32 225.35-1.15 225.2-0.98 225.03-0.9 224.86-0.83 224.61-0.78L224.61-0.78Q222.76-0.42 220.85 0.06 218.95 0.54 216.9 1.25L216.9 1.25Q216.85 1.25 216.83 1.26 216.8 1.27 216.78 1.27L216.78 1.27 216.61 1.27Q216.48 1.27 216.41 1.18 216.34 1.1 216.31 1.03L216.31 1.03Q215.95-0.02 215.47-1.68 214.99-3.34 214.43-5.4 213.87-7.45 213.26-9.77 212.65-12.08 212.02-14.48 211.38-16.87 210.76-19.23 210.14-21.58 209.55-23.68L209.55-23.68Q209.33-24.44 209.33-24.76L209.33-24.76Q209.33-25.1 209.72-25.2L209.72-25.2Q211.63-25.61 213.68-26.06 215.73-26.51 217.56-27.22L217.56-27.22Q217.63-27.25 217.78-27.25L217.78-27.25Q218.1-27.25 218.12-27L218.12-27 221.34-10.6Q221.46-10.89 221.76-11.66 222.05-12.43 222.47-13.5 222.88-14.58 223.38-15.87 223.88-17.16 224.41-18.51 224.93-19.85 225.44-21.18 225.96-22.51 226.41-23.66 226.86-24.8 227.2-25.68 227.54-26.56 227.71-27ZM237.75-10.35L237.75-10.35Q238.06-13.7 238.38-16.97 238.7-20.24 238.94-23.68L238.94-23.68Q238.99-24.49 239.1-24.79 239.21-25.1 239.65-25.2L239.65-25.2Q241.73-25.61 244-26.06 246.27-26.51 248.39-27.22L248.39-27.22Q248.46-27.25 248.61-27.25L248.61-27.25Q248.88-27.25 248.88-27.05L248.88-27.05 246.68-3.27Q246.61-2.47 246.51-2.16 246.41-1.86 245.97-1.76L245.97-1.76Q243.9-1.12 241.77-0.34 239.65 0.44 237.28 1.25L237.28 1.25Q237.21 1.27 237.06 1.27L237.06 1.27Q236.79 1.27 236.79 1.03L236.79 1.03Q236.79 1 236.84 0.37 236.89-0.27 236.98-1.27 237.06-2.27 237.16-3.52 237.26-4.76 237.37-6.01 237.48-7.25 237.58-8.4 237.67-9.55 237.75-10.35ZM239.58-29.83L239.58-29.83Q239.65-30.88 239.69-31.45 239.72-32.01 239.75-32.29 239.77-32.57 239.77-32.64 239.77-32.71 239.78-32.75 239.8-32.79 239.81-32.9 239.82-33.01 239.85-33.36 239.87-33.72 239.92-34.4 239.97-35.08 240.07-36.28L240.07-36.28Q240.11-37.08 240.22-37.39 240.33-37.7 240.77-37.79L240.77-37.79Q242.85-38.21 245.12-38.66 247.39-39.11 249.51-39.82L249.51-39.82Q249.59-39.84 249.73-39.84L249.73-39.84Q249.81-39.7 249.93-39.65L249.93-39.65 250-39.6 249.46-32.91Q249.39-32.1 249.28-31.79 249.17-31.47 248.76-31.4L248.76-31.4Q246.68-31.01 244.56-30.54 242.43-30.08 240.07-29.61L240.07-29.61Q239.99-29.59 239.85-29.59L239.85-29.59Q239.58-29.59 239.58-29.83ZM251.56-11.91L251.56-11.91Q251.56-15.11 252.75-17.91 253.93-20.7 256.02-22.78 258.1-24.85 260.95-26.05 263.79-27.25 267.14-27.25L267.14-27.25Q269.41-27.25 271.02-26.88 272.63-26.51 273.66-26.06 274.68-25.61 275.16-25.23 275.63-24.85 275.63-24.83L275.63-24.83Q275.63-24.68 275.52-24.01 275.41-23.34 275.28-22.45 275.15-21.56 275.04-20.62 274.93-19.68 274.93-18.99L274.93-18.99Q274.93-18.87 274.85-18.73 274.78-18.58 274.46-18.58L274.46-18.58Q274.17-18.58 273.61-18.79 273.05-18.99 272.23-19.24 271.41-19.48 270.35-19.69 269.29-19.9 267.99-19.9L267.99-19.9Q266.38-19.9 265.09-19.32 263.79-18.75 262.87-17.74 261.94-16.72 261.44-15.33 260.94-13.94 260.94-12.33L260.94-12.33Q260.94-10.64 261.46-9.46 261.99-8.28 262.87-7.53 263.74-6.79 264.89-6.45 266.04-6.1 267.31-6.1L267.31-6.1Q268.77-6.1 270.26-6.51 271.75-6.91 273.07-7.64L273.07-7.64Q273.12-7.67 273.27-7.67L273.27-7.67Q273.39-7.67 273.45-7.54 273.51-7.42 273.51-7.08L273.51-7.08Q273.51-6.3 273.51-5.19 273.51-4.08 273.5-3.06 273.49-2.05 273.46-1.34 273.44-0.63 273.41-0.63L273.41-0.63Q272.53-0.05 271.51 0.32 270.48 0.68 269.4 0.9 268.31 1.12 267.21 1.2 266.11 1.27 265.09 1.27L265.09 1.27Q262.23 1.27 259.77 0.32 257.3-0.63 255.48-2.37 253.66-4.1 252.61-6.53 251.56-8.96 251.56-11.91ZM291.99-27.25L291.99-27.25Q294.31-27.25 296.2-26.38 298.09-25.51 299.45-24.13 300.8-22.75 301.54-21.04 302.27-19.34 302.27-17.63L302.27-17.63Q302.27-16.11 301.34-14.59 300.41-13.06 298.74-11.84 297.07-10.62 294.72-9.86 292.38-9.11 289.57-9.11L289.57-9.11Q288.11-9.11 286.5-9.4L286.5-9.4Q286.59-8.35 287.11-7.59 287.62-6.84 288.4-6.35 289.18-5.86 290.17-5.63 291.16-5.4 292.21-5.4L292.21-5.4Q293.38-5.4 294.47-5.6 295.55-5.81 296.55-6.15 297.56-6.49 298.48-6.91 299.41-7.32 300.24-7.74L300.24-7.74Q300.46-7.79 300.62-7.82 300.78-7.86 300.92-7.86L300.92-7.86Q300.92-7.86 300.91-7.47 300.9-7.08 300.9-6.37 300.9-5.66 300.89-4.66 300.88-3.66 300.85-2.44L300.85-2.44Q300.92-2.32 300.95-2.2 300.97-2.08 300.97-2L300.97-2Q300.97-1.71 300.44-1.37 299.9-1.03 299.03-0.66 298.17-0.29 297.06 0.05 295.94 0.39 294.8 0.67 293.65 0.95 292.58 1.11 291.5 1.27 290.7 1.27L290.7 1.27Q288.06 1.27 285.58 0.35 283.1-0.56 281.19-2.27 279.27-3.98 278.12-6.42 276.97-8.86 276.97-11.91L276.97-11.91Q276.97-15.11 278.07-17.91 279.17-20.7 281.16-22.78 283.15-24.85 285.91-26.05 288.67-27.25 291.99-27.25ZM291.7-20.75L291.7-20.75Q290.7-20.75 289.85-20.32 289.01-19.9 288.31-19.1 287.62-18.31 287.11-17.2 286.59-16.09 286.28-14.75L286.28-14.75Q288.79-15.19 290.45-15.67 292.11-16.16 293.11-16.66 294.11-17.16 294.53-17.66 294.94-18.16 294.94-18.63L294.94-18.63Q294.94-19.07 294.61-19.46 294.28-19.85 293.8-20.14 293.31-20.43 292.73-20.59 292.16-20.75 291.7-20.75ZM305.76-0.07L305.44-6.74Q305.44-6.76 305.43-6.77 305.41-6.79 305.41-6.81L305.41-6.81Q305.41-7.13 305.76-7.13L305.76-7.13Q305.98-7.13 306.15-6.96L306.15-6.96Q307.12-6.03 308.38-5.44 309.64-4.86 311.1-4.86L311.1-4.86Q311.49-4.86 312.01-4.94 312.52-5.03 312.98-5.22 313.45-5.42 313.75-5.75 314.06-6.08 314.06-6.57L314.06-6.57Q314.06-7.1 313.79-7.56 313.52-8.01 313.08-8.3L313.08-8.3Q312.84-8.47 312.23-8.9 311.62-9.33 310.92-9.81 310.22-10.3 309.6-10.74 308.98-11.18 308.73-11.38L308.73-11.38Q307.64-12.21 306.99-13.06 306.34-13.92 306-14.83 305.66-15.75 305.56-16.75 305.46-17.75 305.46-18.87L305.46-18.87Q305.46-20.58 306.37-22.09 307.27-23.61 308.75-24.76 310.22-25.9 312.1-26.57 313.98-27.25 315.94-27.25L315.94-27.25Q317.55-27.25 319.11-26.76 320.67-26.27 322.02-25.1L322.02-25.1Q322.14-23.56 322.19-22.07 322.24-20.58 322.33-18.95L322.33-18.95Q322.33-18.63 322.19-18.52 322.04-18.41 321.85-18.41L321.85-18.41Q321.67-18.41 321.55-18.53L321.55-18.53Q320.99-19.07 320.4-19.59 319.82-20.12 319.17-20.52 318.52-20.92 317.79-21.18 317.06-21.44 316.23-21.44L316.23-21.44Q315.72-21.44 315.2-21.35 314.69-21.26 314.28-21.03 313.86-20.8 313.61-20.41 313.35-20.02 313.35-19.41L313.35-19.41Q313.35-18.7 313.52-18.19 313.69-17.68 314.33-17.19L314.33-17.19 318.87-14.11Q320.11-13.26 320.88-12.44 321.65-11.62 322.09-10.82 322.53-10.01 322.69-9.22 322.85-8.42 322.85-7.64L322.85-7.64Q322.85-5.44 321.83-3.77 320.82-2.1 319.21-0.99 317.6 0.12 315.56 0.7 313.52 1.27 311.47 1.27L311.47 1.27Q309.91 1.27 308.45 0.94 307 0.61 305.76-0.07L305.76-0.07ZM350.5 1.27L350.5 1.27Q347.06 1.27 344.46 0.15 341.86-0.98 340.1-2.84 338.34-4.71 337.47-7.14 336.59-9.57 336.59-12.18L336.59-12.18Q336.59-14.79 337.44-17.15 338.3-19.51 339.83-21.37 341.37-23.24 343.52-24.5 345.67-25.76 348.26-26.2L348.26-26.2Q348.65-26.22 348.65-26.37L348.65-26.37Q348.65-26.64 348.59-26.87 348.52-27.1 348.52-27.27L348.52-27.27Q348.52-27.54 348.62-27.64 348.72-27.73 348.84-27.73L348.84-27.73Q353.51-27.73 356.78-26.67 360.05-25.61 362.1-23.78 364.15-21.95 365.08-19.46 366.01-16.97 366.01-14.11L366.01-14.11Q366.01-10.47 364.78-7.62 363.56-4.76 361.45-2.78 359.34-0.81 356.52 0.23 353.7 1.27 350.5 1.27ZM345.99-12.45L345.99-12.45Q345.99-11.13 346.27-9.84 346.55-8.54 347.19-7.5 347.84-6.45 348.89-5.8 349.94-5.15 351.5-5.15L351.5-5.15Q352.63-5.2 353.47-5.65 354.31-6.1 354.92-6.82 355.53-7.54 355.93-8.45 356.34-9.35 356.57-10.31 356.8-11.28 356.9-12.21 357-13.13 357-13.89L357-13.89Q357-15.16 356.62-16.38 356.24-17.6 355.51-18.53 354.77-19.46 353.69-20.03 352.6-20.61 351.19-20.61L351.19-20.61Q349.72-20.61 348.72-19.74 347.72-18.87 347.12-17.6 346.52-16.33 346.25-14.93 345.99-13.53 345.99-12.45ZM395.32-0.78L389.39 0.88Q389.12 0.95 388.68 1.11 388.24 1.27 387.83 1.27L387.83 1.27Q387.49 1.27 387.23 1.1 386.97 0.93 386.97 0.51L386.97 0.51 386.97 0.37Q387.12-0.95 387.22-1.87 387.32-2.78 387.4-3.53 387.49-4.27 387.55-5.02 387.61-5.76 387.71-6.75 387.8-7.74 387.94-9.09 388.07-10.45 388.27-12.48L388.27-12.48Q388.39-13.72 388.49-15.01 388.59-16.31 388.59-17.41L388.59-17.41Q388.59-18.14 388.48-18.76 388.37-19.38 388.09-19.84 387.8-20.29 387.32-20.53 386.83-20.78 386.07-20.78L386.07-20.78Q385.51-20.78 384.52-20.53 383.53-20.29 382.56-19.73 381.58-19.17 380.82-18.25 380.07-17.33 379.97-15.99L379.97-15.99Q379.82-14.18 379.7-12.9 379.58-11.62 379.48-10.73 379.38-9.84 379.32-9.28 379.26-8.72 379.23-8.33L379.23-8.33Q379.21-8.23 379.16-7.79 379.11-7.35 379.05-6.74 378.99-6.13 378.93-5.44 378.87-4.76 378.81-4.15 378.75-3.54 378.71-3.1 378.67-2.66 378.67-2.56L378.67-2.56Q378.67-2.37 378.69-2.23 378.7-2.1 378.7-1.98L378.7-1.98Q378.7-1.78 378.51-1.65 378.33-1.51 377.7-1.34L377.7-1.34 371.23 0.88Q370.96 0.98 370.52 1.12 370.08 1.27 369.66 1.27L369.66 1.27Q369.32 1.27 369.07 1.1 368.81 0.93 368.81 0.51L368.81 0.51 371.03-24.44Q371.11-25.24 371.21-25.55 371.32-25.85 371.76-25.95L371.76-25.95Q373.99-26.39 376.33-26.84 378.67-27.29 380.9-28L380.9-28Q381.09-28 381.13-27.94 381.16-27.88 381.16-27.76L381.16-27.76Q381.16-27.71 381.15-27.61 381.14-27.51 381.08-27.17 381.02-26.83 380.91-26.14 380.8-25.44 380.6-24.19L380.6-24.19Q382.29-25.17 383.76-25.77 385.24-26.37 386.55-26.7 387.85-27.03 389-27.14 390.15-27.25 391.15-27.25L391.15-27.25Q394.59-27.25 396.15-25.16 397.72-23.07 397.72-18.9L397.72-18.9Q397.72-18.31 397.69-17.69 397.67-17.07 397.59-16.41L397.59-16.41 396.47-5.91Q396.35-4.88 396.32-4.02 396.3-3.15 396.3-2L396.3-2Q396.3-1.81 396.31-1.67 396.32-1.54 396.32-1.44L396.32-1.44Q396.32-1.22 396.14-1.1 395.96-0.98 395.32-0.78L395.32-0.78ZM429.84-18.82L425.3-18.82Q424.96-16.26 424.65-13.71 424.35-11.16 424.27-8.94L424.27-8.94Q424.27-7.98 424.42-7.35 424.57-6.71 424.85-6.35 425.13-5.98 425.52-5.82 425.91-5.66 426.4-5.66L426.4-5.66Q427.18-5.66 428.11-5.9 429.03-6.13 429.96-6.49L429.96-6.49Q430.26-6.62 430.46-6.68 430.67-6.74 430.82-6.74L430.82-6.74Q431.06-6.74 431.15-6.52 431.23-6.3 431.32-5.75 431.4-5.2 431.57-4.27 431.74-3.34 432.14-1.93L432.14-1.93Q432.16-1.81 432.17-1.72 432.18-1.64 432.18-1.56L432.18-1.56Q432.18-1.22 431.93-1.07 431.67-0.93 431.09-0.73L431.09-0.73Q430.08-0.39 428.97-0.04 427.86 0.32 426.78 0.61 425.69 0.9 424.69 1.09 423.69 1.27 422.93 1.27L422.93 1.27Q418.85 1.27 416.99-0.76 415.12-2.78 415.12-6.93L415.12-6.93Q415.12-7.64 415.17-8.39 415.22-9.13 415.29-9.94L415.29-9.94Q415.53-12.38 415.72-14.56 415.9-16.75 416.1-18.75L416.1-18.75 413.53-18.75Q412.21-18.75 411.63-18.86 411.04-18.97 411.04-19.31L411.04-19.31Q411.04-19.41 411.29-19.84 411.53-20.26 411.91-20.86 412.29-21.46 412.73-22.14 413.17-22.83 413.57-23.43 413.97-24.02 414.26-24.46 414.56-24.9 414.63-25L414.63-25 416.36-25Q416.58-26.86 416.72-28.11 416.85-29.37 416.94-30.2 417.02-31.03 417.1-31.48 417.17-31.93 417.25-32.15 417.34-32.37 417.47-32.43 417.61-32.5 417.83-32.54L417.83-32.54Q418.93-32.76 419.95-32.95 420.98-33.13 422-33.33 423.03-33.52 424.09-33.78 425.15-34.03 426.3-34.38L426.3-34.38Q426.37-34.38 426.4-34.39 426.42-34.4 426.5-34.4L426.5-34.4Q426.79-34.4 426.79-34.2L426.79-34.2 426.79-34.16Q426.67-32.81 426.41-30.42 426.15-28.03 425.84-25L425.84-25 432.38-25Q432.57-25 432.76-24.87 432.94-24.73 432.94-24.41L432.94-24.41Q432.94-24.29 432.65-23.54 432.35-22.78 431.82-21.56L431.82-21.56 430.94-19.58Q430.77-19.21 430.58-19.04 430.4-18.87 429.84-18.82L429.84-18.82ZM434.94 0.37L437.72-35.5Q437.72-35.64 437.71-35.77 437.7-35.89 437.7-36.01L437.7-36.01Q437.7-36.23 437.87-36.39 438.04-36.55 438.7-36.72L438.7-36.72 445.56-38.35Q445.83-38.4 446.27-38.57 446.71-38.75 447.12-38.75L447.12-38.75Q447.98-38.75 447.98-37.96L447.98-37.96Q447.98-37.92 447.9-36.96 447.83-36.01 447.71-34.59 447.59-33.18 447.44-31.51 447.29-29.83 447.15-28.32 447-26.81 446.88-25.67 446.76-24.54 446.68-24.19L446.68-24.19Q447.83-24.83 449.08-25.39 450.32-25.95 451.58-26.37 452.84-26.78 454.09-27.01 455.35-27.25 456.52-27.25L456.52-27.25Q458.01-27.25 459.31-26.82 460.6-26.39 461.56-25.4 462.53-24.41 463.08-22.81 463.63-21.22 463.63-18.9L463.63-18.9Q463.63-18.31 463.6-17.69 463.58-17.07 463.5-16.41L463.5-16.41 462.46-6.42Q462.33-5.4 462.31-4.28 462.28-3.17 462.28-2L462.28-2Q462.28-1.81 462.3-1.67 462.31-1.54 462.31-1.44L462.31-1.44Q462.31-1.22 462.13-1.1 461.94-0.98 461.31-0.78L461.31-0.78 455.33 0.88Q455.06 0.95 454.62 1.11 454.18 1.27 453.76 1.27L453.76 1.27Q453.35 1.27 453.13 1.09 452.91 0.9 452.91 0.37L452.91 0.37Q453.08-1.46 453.19-2.59 453.3-3.71 453.36-4.38 453.42-5.05 453.47-5.41 453.52-5.76 453.54-6.04 453.57-6.32 453.62-6.68 453.67-7.03 453.73-7.71 453.79-8.4 453.9-9.52 454.01-10.64 454.18-12.48L454.18-12.48Q454.28-13.45 454.39-14.42 454.5-15.38 454.5-16.19L454.5-16.19Q454.5-17.21 454.39-18.05 454.28-18.9 454-19.49 453.71-20.09 453.23-20.43 452.74-20.78 451.98-20.78L451.98-20.78Q451.42-20.78 450.46-20.53 449.49-20.29 448.53-19.73 447.56-19.17 446.82-18.25 446.07-17.33 445.98-15.99L445.98-15.99Q445.78-14.11 445.67-12.92 445.56-11.72 445.49-10.94 445.41-10.16 445.38-9.69 445.34-9.23 445.32-8.84L445.32-8.84Q445.29-8.72 445.24-8.24 445.19-7.76 445.12-7.1 445.05-6.45 444.97-5.7 444.9-4.96 444.84-4.3 444.78-3.64 444.74-3.16 444.71-2.69 444.71-2.56L444.71-2.56Q444.71-2.37 444.72-2.23 444.73-2.1 444.73-1.98L444.73-1.98Q444.73-1.78 444.55-1.65 444.36-1.51 443.73-1.34L443.73-1.34 437.36 0.88Q437.09 0.98 436.65 1.12 436.21 1.27 435.79 1.27L435.79 1.27Q435.43 1.27 435.18 1.06 434.94 0.85 434.94 0.37L434.94 0.37ZM481.91-27.25L481.91-27.25Q484.23-27.25 486.12-26.38 488.01-25.51 489.37-24.13 490.72-22.75 491.46-21.04 492.19-19.34 492.19-17.63L492.19-17.63Q492.19-16.11 491.26-14.59 490.33-13.06 488.66-11.84 486.99-10.62 484.64-9.86 482.3-9.11 479.49-9.11L479.49-9.11Q478.03-9.11 476.42-9.4L476.42-9.4Q476.52-8.35 477.03-7.59 477.54-6.84 478.32-6.35 479.1-5.86 480.09-5.63 481.08-5.4 482.13-5.4L482.13-5.4Q483.3-5.4 484.39-5.6 485.47-5.81 486.48-6.15 487.48-6.49 488.4-6.91 489.33-7.32 490.16-7.74L490.16-7.74Q490.38-7.79 490.54-7.82 490.7-7.86 490.85-7.86L490.85-7.86Q490.85-7.86 490.83-7.47 490.82-7.08 490.82-6.37 490.82-5.66 490.81-4.66 490.8-3.66 490.77-2.44L490.77-2.44Q490.85-2.32 490.87-2.2 490.89-2.08 490.89-2L490.89-2Q490.89-1.71 490.36-1.37 489.82-1.03 488.95-0.66 488.09-0.29 486.98 0.05 485.87 0.39 484.72 0.67 483.57 0.95 482.5 1.11 481.42 1.27 480.62 1.27L480.62 1.27Q477.98 1.27 475.5 0.35 473.02-0.56 471.11-2.27 469.19-3.98 468.04-6.42 466.9-8.86 466.9-11.91L466.9-11.91Q466.9-15.11 467.99-17.91 469.09-20.7 471.08-22.78 473.07-24.85 475.83-26.05 478.59-27.25 481.91-27.25ZM481.62-20.75L481.62-20.75Q480.62-20.75 479.77-20.32 478.93-19.9 478.24-19.1 477.54-18.31 477.03-17.2 476.52-16.09 476.2-14.75L476.2-14.75Q478.71-15.19 480.37-15.67 482.03-16.16 483.03-16.66 484.03-17.16 484.45-17.66 484.86-18.16 484.86-18.63L484.86-18.63Q484.86-19.07 484.54-19.46 484.21-19.85 483.72-20.14 483.23-20.43 482.66-20.59 482.08-20.75 481.62-20.75ZM520.31-15.48L519.11-1.95Q519.09-1.73 519.03-1.53 518.97-1.32 518.7-1.2L518.7-1.2Q518.6-1.15 517.73-0.84 516.87-0.54 515.73-0.13 514.6 0.27 513.49 0.67 512.37 1.07 511.79 1.29L511.79 1.29Q511.5 1.42 511.07 1.55 510.64 1.68 510.23 1.68L510.23 1.68Q509.88 1.68 509.63 1.51 509.37 1.34 509.37 0.88L509.37 0.88Q509.37-0.2 509.43-1.09 509.49-1.98 509.59-2.95 509.69-3.93 509.8-5.11 509.91-6.3 510.01-7.93L510.01-7.93Q510.13-10.08 510.27-12.07 510.42-14.06 510.57-16.21L510.57-16.21 510.91-20.39Q510.98-21.41 511.06-22.47 511.13-23.54 511.2-24.66L511.2-24.66 511.47-27.64Q511.47-27.69 511.32-27.69L511.32-27.69Q511.13-27.69 510.67-27.6 510.2-27.51 509.57-27.39 508.93-27.27 508.16-27.14 507.39-27 506.59-26.88L506.59-26.88Q506.39-26.88 506.21-26.97 506.03-27.05 506.03-27.17L506.03-27.17Q506.03-27.27 506.08-27.32L506.08-27.32 510.03-34.23Q511.37-34.52 512.92-34.83 514.47-35.13 516.26-35.38 518.04-35.62 520.04-35.78 522.04-35.94 524.29-35.94L524.29-35.94Q526.83-35.89 529.23-35.44 531.64-34.99 533.5-33.92 535.37-32.86 536.51-31.04 537.64-29.22 537.64-26.44L537.64-26.44Q537.64-24.9 537.12-23.61 536.59-22.31 535.78-21.28 534.96-20.24 533.98-19.45 533-18.65 532.11-18.09 531.22-17.53 530.54-17.2 529.85-16.87 529.61-16.77L529.61-16.77Q529.61-16.72 529.65-16.65 529.68-16.58 529.81-16.37 529.93-16.16 530.16-15.78 530.39-15.41 530.76-14.75L530.76-14.75Q531.15-14.16 531.69-13.18 532.22-12.21 532.97-10.88 533.71-9.55 534.69-7.91 535.67-6.27 536.93-4.39L536.93-4.39Q537.35-4.03 537.89-3.94 538.42-3.86 538.89-3.85 539.35-3.83 539.67-3.8 539.99-3.76 539.99-3.49L539.99-3.49Q539.99-3.3 539.58-3.04 539.18-2.78 538.64-2.51 538.11-2.25 537.56-2 537.01-1.76 536.72-1.61L536.72-1.61Q536.13-1.32 535.49-1.05 534.86-0.78 534.13-0.45 533.39-0.12 532.5 0.32 531.61 0.76 530.49 1.37L530.49 1.37Q530.2 1.54 529.94 1.6 529.68 1.66 529.46 1.66L529.46 1.66Q529.02 1.66 528.71 1.45 528.39 1.25 528.17 0.95 527.95 0.66 527.82 0.35 527.68 0.05 527.58-0.15L527.58-0.15 520.31-15.48ZM521.58-28.86L520.6-18.48Q521.85-18.48 523.19-19.12 524.53-19.75 525.63-20.75 526.73-21.75 527.44-23.02 528.15-24.29 528.15-25.59L528.15-25.59Q528.15-29.13 523.9-29.13L523.9-29.13Q523.09-29.13 522.55-29.02 522.02-28.91 521.58-28.86L521.58-28.86ZM553.97 1.27L553.97 1.27Q550.53 1.27 547.93 0.15 545.33-0.98 543.57-2.84 541.82-4.71 540.94-7.14 540.06-9.57 540.06-12.18L540.06-12.18Q540.06-14.79 540.91-17.15 541.77-19.51 543.3-21.37 544.84-23.24 546.99-24.5 549.14-25.76 551.73-26.2L551.73-26.2Q552.12-26.22 552.12-26.37L552.12-26.37Q552.12-26.64 552.06-26.87 552-27.1 552-27.27L552-27.27Q552-27.54 552.09-27.64 552.19-27.73 552.31-27.73L552.31-27.73Q556.98-27.73 560.25-26.67 563.52-25.61 565.57-23.78 567.62-21.95 568.55-19.46 569.48-16.97 569.48-14.11L569.48-14.11Q569.48-10.47 568.26-7.62 567.03-4.76 564.92-2.78 562.81-0.81 559.99 0.23 557.17 1.27 553.97 1.27ZM549.46-12.45L549.46-12.45Q549.46-11.13 549.74-9.84 550.02-8.54 550.67-7.5 551.31-6.45 552.36-5.8 553.41-5.15 554.97-5.15L554.97-5.15Q556.1-5.2 556.94-5.65 557.78-6.1 558.39-6.82 559-7.54 559.41-8.45 559.81-9.35 560.04-10.31 560.27-11.28 560.37-12.21 560.47-13.13 560.47-13.89L560.47-13.89Q560.47-15.16 560.09-16.38 559.71-17.6 558.98-18.53 558.25-19.46 557.16-20.03 556.07-20.61 554.66-20.61L554.66-20.61Q553.19-20.61 552.19-19.74 551.19-18.87 550.59-17.6 549.99-16.33 549.73-14.93 549.46-13.53 549.46-12.45ZM572.11-11.91L572.11-11.91Q572.11-15.11 573.29-17.91 574.48-20.7 576.57-22.78 578.65-24.85 581.5-26.05 584.34-27.25 587.69-27.25L587.69-27.25Q589.96-27.25 591.57-26.88 593.18-26.51 594.21-26.06 595.23-25.61 595.71-25.23 596.18-24.85 596.18-24.83L596.18-24.83Q596.18-24.68 596.07-24.01 595.96-23.34 595.83-22.45 595.69-21.56 595.58-20.62 595.47-19.68 595.47-18.99L595.47-18.99Q595.47-18.87 595.4-18.73 595.33-18.58 595.01-18.58L595.01-18.58Q594.72-18.58 594.16-18.79 593.59-18.99 592.78-19.24 591.96-19.48 590.9-19.69 589.84-19.9 588.54-19.9L588.54-19.9Q586.93-19.9 585.64-19.32 584.34-18.75 583.41-17.74 582.49-16.72 581.99-15.33 581.49-13.94 581.49-12.33L581.49-12.33Q581.49-10.64 582.01-9.46 582.54-8.28 583.41-7.53 584.29-6.79 585.44-6.45 586.59-6.1 587.86-6.1L587.86-6.1Q589.32-6.1 590.81-6.51 592.3-6.91 593.62-7.64L593.62-7.64Q593.67-7.67 593.81-7.67L593.81-7.67Q593.94-7.67 594-7.54 594.06-7.42 594.06-7.08L594.06-7.08Q594.06-6.3 594.06-5.19 594.06-4.08 594.05-3.06 594.03-2.05 594.01-1.34 593.99-0.63 593.96-0.63L593.96-0.63Q593.08-0.05 592.06 0.32 591.03 0.68 589.94 0.9 588.86 1.12 587.76 1.2 586.66 1.27 585.64 1.27L585.64 1.27Q582.78 1.27 580.31 0.32 577.85-0.63 576.03-2.37 574.21-4.1 573.16-6.53 572.11-8.96 572.11-11.91ZM611.46-37.06L611.46-37.06 610.58-28.59Q610.41-26.88 610.23-25.12 610.05-23.36 609.88-21.75 609.71-20.14 609.56-18.77 609.41-17.41 609.31-16.53L609.31-16.53 611-18.38 613.73-21.58Q614.25-22.17 614.73-22.75 615.22-23.34 615.61-23.79 616-24.24 616.25-24.55 616.49-24.85 616.54-24.9L616.54-24.9 626.36-25.59Q626.43-25.61 626.51-25.61 626.6-25.61 626.67-25.61L626.67-25.61Q627.09-25.61 627.09-25.39L627.09-25.39Q627.09-25.22 626.58-24.63L626.58-24.63 618.93-16.09Q618.42-15.53 617.73-14.78 617.03-14.04 616.18-13.13L616.18-13.13 619.74-8.89 625.89-2.27Q625.97-2.15 626.11-2.09 626.26-2.03 626.39-1.98 626.53-1.93 626.64-1.87 626.75-1.81 626.75-1.68L626.75-1.68Q626.75-1.59 626.71-1.54 626.67-1.49 626.48-1.34L626.48-1.34Q626.26-1.17 625.71-0.85 625.16-0.54 624.43-0.15 623.69 0.24 622.86 0.65 622.03 1.05 621.25 1.38 620.47 1.71 619.81 1.92 619.15 2.12 618.79 2.12L618.79 2.12Q618.49 2.12 618.21 1.98 617.93 1.83 617.59 1.44L617.59 1.44Q617.13 0.9 616.43 0.04 615.74-0.83 614.93-1.87 614.12-2.91 613.28-4.02 612.44-5.13 611.67-6.14 610.9-7.15 610.28-7.97 609.66-8.79 609.31-9.28L609.31-9.28Q609.19-9.16 609.07-9.09 608.95-9.03 608.84-8.94 608.73-8.84 608.66-8.7 608.58-8.57 608.58-8.33L608.58-8.33Q608.58-8.23 608.53-7.78 608.48-7.32 608.42-6.7 608.36-6.08 608.29-5.37 608.22-4.66 608.16-4.04 608.09-3.42 608.05-2.97 608-2.51 608-2.42L608-2.42Q608-2.25 608.01-2.14 608.02-2.03 608.02-1.93L608.02-1.93Q608.02-1.66 607.84-1.53 607.65-1.39 606.95-1.2L606.95-1.2 600.55 0.88Q600.28 0.98 599.84 1.12 599.4 1.27 598.99 1.27L598.99 1.27Q598.65 1.27 598.39 1.1 598.13 0.93 598.13 0.46L598.13 0.46 601.21-34.72Q601.21-34.84 601.19-34.95 601.16-35.06 601.16-35.18L601.16-35.18Q601.16-35.4 601.34-35.58 601.53-35.77 602.19-35.94L602.19-35.94 609.05-37.57Q609.31-37.62 609.75-37.79 610.19-37.96 610.61-37.96L610.61-37.96Q610.93-37.96 611.21-37.82 611.49-37.67 611.49-37.26L611.49-37.26Q611.49-37.21 611.48-37.16 611.46-37.11 611.46-37.06ZM629.11-0.07L628.79-6.74Q628.79-6.76 628.78-6.77 628.77-6.79 628.77-6.81L628.77-6.81Q628.77-7.13 629.11-7.13L629.11-7.13Q629.33-7.13 629.5-6.96L629.5-6.96Q630.48-6.03 631.74-5.44 632.99-4.86 634.46-4.86L634.46-4.86Q634.85-4.86 635.36-4.94 635.87-5.03 636.34-5.22 636.8-5.42 637.11-5.75 637.41-6.08 637.41-6.57L637.41-6.57Q637.41-7.1 637.14-7.56 636.88-8.01 636.44-8.3L636.44-8.3Q636.19-8.47 635.58-8.9 634.97-9.33 634.28-9.81 633.58-10.3 632.96-10.74 632.33-11.18 632.09-11.38L632.09-11.38Q630.99-12.21 630.35-13.06 629.7-13.92 629.36-14.83 629.01-15.75 628.92-16.75 628.82-17.75 628.82-18.87L628.82-18.87Q628.82-20.58 629.72-22.09 630.63-23.61 632.1-24.76 633.58-25.9 635.46-26.57 637.34-27.25 639.29-27.25L639.29-27.25Q640.9-27.25 642.47-26.76 644.03-26.27 645.37-25.1L645.37-25.1Q645.49-23.56 645.54-22.07 645.59-20.58 645.69-18.95L645.69-18.95Q645.69-18.63 645.54-18.52 645.4-18.41 645.2-18.41L645.2-18.41Q645.03-18.41 644.91-18.53L644.91-18.53Q644.35-19.07 643.76-19.59 643.17-20.12 642.53-20.52 641.88-20.92 641.15-21.18 640.42-21.44 639.59-21.44L639.59-21.44Q639.07-21.44 638.56-21.35 638.05-21.26 637.63-21.03 637.22-20.8 636.96-20.41 636.71-20.02 636.71-19.41L636.71-19.41Q636.71-18.7 636.88-18.19 637.05-17.68 637.68-17.19L637.68-17.19 642.22-14.11Q643.47-13.26 644.24-12.44 645.01-11.62 645.45-10.82 645.88-10.01 646.04-9.22 646.2-8.42 646.2-7.64L646.2-7.64Q646.2-5.44 645.19-3.77 644.18-2.1 642.56-0.99 640.95 0.12 638.91 0.7 636.88 1.27 634.83 1.27L634.83 1.27Q633.26 1.27 631.81 0.94 630.36 0.61 629.11-0.07L629.11-0.07Z" opacity="1" transform="matrix(1,0,0,1,0,0)" fill="#454545" class="undefined-text-1" data-fill-palette-color="secondary" id="text-1"></path></svg></g></svg></g></svg></g></svg></g><g><svg viewBox="0 0 44.40913800899674 62.03151458162793" height="62.03151458162793" width="44.40913800899674"><g><svg xmlns:x="http://ns.adobe.com/Extensibility/1.0/" xmlns:i="http://ns.adobe.com/AdobeIllustrator/10.0/" xmlns:graph="http://ns.adobe.com/Graphs/1.0/" xmlns="http://www.w3.org/2000/svg" xmlns:xlink="http://www.w3.org/1999/xlink" version="1.1" x="0" y="0" viewBox="16 5.999982833862305 63.00031280517578 88.00001525878906" enable-background="new 0 0 100 100" xml:space="preserve" height="62.03151458162793" width="44.40913800899674" class="icon-icon-0" data-fill-palette-color="accent" id="icon-0"><path d="M78.893 6.943c-0.308-0.77-1.18-1.143-1.949-0.835l-10.18 4.071c-1.722 0.689-3.378 2.562-3.851 4.357L61.212 21H48.924C48.163 12.603 41.092 6 32.5 6 23.402 6 16 13.402 16 22.5c0 7.416 4.864 13.769 11.809 15.81l-1.289 6.444c-0.333 1.666-0.061 4.091 0.633 5.64 0.371 0.829 8.912 19.575 21.348 21.01V91H35c-0.829 0-1.5 0.672-1.5 1.5S34.171 94 35 94h30c0.828 0 1.5-0.672 1.5-1.5S65.828 91 65 91H51.5V71.404c12.437-1.435 20.977-20.181 21.348-21.01 0.693-1.55 0.966-3.975 0.633-5.641l-4.02-20.096C69.051 22.606 67.092 21 65 21h-0.687l1.5-5.7c0.229-0.868 1.232-2.003 2.064-2.336l10.179-4.071C78.826 8.585 79.2 7.712 78.893 6.943zM19 22.5C19 15.056 25.056 9 32.5 9c6.937 0 12.662 5.26 13.412 12H35c-2.092 0-4.051 1.606-4.461 3.657l-2.14 10.698C22.858 33.605 19 28.475 19 22.5zM42.75 55c-1.381 0-2.5-1.119-2.5-2.5s1.119-2.5 2.5-2.5 2.5 1.119 2.5 2.5S44.131 55 42.75 55zM46.5 62.5c-0.69 0-1.25-0.56-1.25-1.25S45.81 60 46.5 60s1.25 0.56 1.25 1.25S47.19 62.5 46.5 62.5zM30.33 41l3.151-15.754C33.611 24.594 34.335 24 35 24h25.423l-4.474 17H30.33zM60.25 57.5c-1.381 0-2.5-1.119-2.5-2.5s1.119-2.5 2.5-2.5 2.5 1.119 2.5 2.5S61.631 57.5 60.25 57.5zM65 24c0.665 0 1.389 0.594 1.52 1.246L69.671 41h-10.62l4.474-17H65z" fill="#454545" data-fill-palette-color="accent"></path></svg></g></svg></g></svg></g></svg></g></svg></g><path d="M194.135 92.094L194.135 27.822 2.578 27.822 2.578 219.378 194.135 219.378 194.135 155.106 191.499 155.106 191.499 216.742 5.214 216.742 5.214 30.458 191.499 30.458 191.499 92.094Z" fill="#454545" stroke="transparent" data-fill-palette-color="primary"></path></svg></g><defs></defs></svg><rect width="395.52" height="247.2" fill="none" stroke="none" visibility="hidden"></rect></g></svg></g></svg>